<svg id="Layer_1" enable-background="new 0 0 512 512" height="512" viewBox="0 0 512 512" width="512" xmlns="http://www.w3.org/2000/svg"><g id="XMLID_1_"><g id="XMLID_4191_"><path id="XMLID_977_" d="m220.9 218.4-27.9 34.6h-52.3c-45.4 0-88.5 20.1-117.7 55v74h424v-243h-60c-64.5 0-125.5 29.2-166.1 79.4z" fill="#68a1d6"/><path id="XMLID_3177_" d="m140.7 253c-20.7 0-40.8 4-59.5 12h365.8v-12h-254z" fill="#9ad2fc"/><circle id="XMLID_1596_" cx="125" cy="383" fill="#323d2c" r="63"/><path id="XMLID_2726_" d="m118.8 320.3c-29.8 2.9-53.6 26.7-56.5 56.5 7.1 6.3 16.4 10.2 26.7 10.2 22.1 0 40-17.9 40-40 0-10.3-3.9-19.6-10.2-26.7z" fill="#485143"/><circle id="XMLID_1595_" cx="125" cy="383" fill="#1c2617" r="32"/><path id="XMLID_1594_" d="m5 357h57v52h-57z" fill="#9ad2fc"/><path id="XMLID_2724_" d="m5 374h57v35h-57z" fill="#3179af"/><path id="XMLID_2808_" d="m188 357h199v52h-199z" fill="#9ad2fc"/><path id="XMLID_2725_" d="m188 374h199v35h-199z" fill="#3179af"/><path id="XMLID_1592_" d="m422 164h-50.2c-45.8 0-89.2 20.5-118.3 55.8l-27.5 33.2h196z" fill="#323d2c"/><path id="XMLID_4775_" d="m407.5 164h-49l-98 89h49z" fill="#485143"/><path id="XMLID_1591_" d="m273 227h-34c-7.2 0-13 5.8-13 13v13h47c7.2 0 13-5.8 13-13 0-7.2-5.8-13-13-13z" fill="#3179af"/><path id="XMLID_3172_" d="m273 227h-21.5c-3.6 0-6.5 2.9-6.5 6.5 0 3.6 2.9 6.5 6.5 6.5h34.5c0-7.2-5.8-13-13-13z" fill="#68a1d6"/><path id="XMLID_1590_" d="m83 284h-8.6c-19.8 0-38.6 8.8-51.4 24h36c13.3 0 24-10.7 24-24z" fill="#f8d707"/><path id="XMLID_1597_" d="m399 382v-30h-16.8c-1.6-7-4.2-12.8-7.6-18.4l11.9-11.9-21.2-21.2-11.9 11.9c-5.6-3.4-11.8-6-18.4-7.6v-16.8h-30v16.8c-6.6 1.6-12.8 4.2-18.4 7.6l-11.9-11.9-21.2 21.2 11.9 11.9c-3.4 5.6-6 11.4-7.6 18.4h-16.8v30h16.8c1.6 7 4.2 12.8 7.6 18.4l-11.9 11.9 21.2 21.2 11.9-11.9c5.6 3.4 11.8 6 18.4 7.6v16.8h30v-16.8c6.6-1.6 12.8-4.2 18.4-7.6l11.9 11.9 21.2-21.2-11.9-11.9c3.4-5.6 6-11.4 7.6-18.4zm-79 20c-19.3 0-35-15.7-35-35s15.7-35 35-35 35 15.7 35 35-15.7 35-35 35z" fill="#c4c1ab"/><path id="XMLID_1600_" d="m507 145.3v-61.4l-35-17.9v43.4l-25 12.8-25-12.8v-43.4l-35 17.9v61.4l35 17.9v185.6l-35 17.9v61.4l35 17.9v-43.4l25-12.8 25 12.8v43.4l35-17.9v-61.4l-35-17.9v-185.6z" fill="#f8d707"/><g id="XMLID_2796_" fill="#fffa5a"><path id="XMLID_2797_" d="m430 390-25 12.6v34.7l17 8.7v-43.4l25-12.6z"/><path id="XMLID_2798_" d="m405 74.7v34.7l25 12.6h17l-25-12.6v-43.4z"/><path id="XMLID_2799_" d="m507 145.3v-61.4l-17-8.7v70.1l-35 17.9v185.6l35 17.9v70.1l17-8.7v-61.4l-35-17.9v-185.6z"/></g><path id="XMLID_1127_" d="m317.8 332.1c.8-3.4 1.2-6.9 1.2-10.6 0-12.9-5.4-24.5-14-32.8v16.1c-6.6 1.6-12.8 4.2-18.4 7.6l-11.9-11.9-21.2 21.2 11.9 11.9c-3.4 5.6-6 11.4-7.6 18.4h-16.8v1.3c8.3 8.4 19.8 13.7 32.5 13.7 4 0 7.9-.5 11.5-1.5.8-17.9 15-32.3 32.8-33.4z" fill="#ebeadf"/></g><g id="XMLID_3866_"><g id="XMLID_371_"><path id="XMLID_3570_" d="m125 451c-37.5 0-68-30.5-68-68s30.5-68 68-68 68 30.5 68 68-30.5 68-68 68zm0-126c-32 0-58 26-58 58s26 58 58 58 58-26 58-58-26-58-58-58z" fill="#060d1a"/></g><g id="XMLID_379_"><path id="XMLID_3567_" d="m125 420c-20.4 0-37-16.6-37-37s16.6-37 37-37 37 16.6 37 37-16.6 37-37 37zm0-64c-14.9 0-27 12.1-27 27s12.1 27 27 27 27-12.1 27-27-12.1-27-27-27z" fill="#060d1a"/></g><g id="XMLID_372_"><path id="XMLID_3564_" d="m62 414h-57c-2.8 0-5-2.2-5-5v-52c0-2.8 2.2-5 5-5h57c2.8 0 5 2.2 5 5v52c0 2.8-2.2 5-5 5zm-52-10h47v-42h-47z" fill="#060d1a"/></g><g id="XMLID_381_"><path id="XMLID_3563_" d="m28 357h-10v-49c0-1.2.4-2.3 1.2-3.2 30.2-36.1 74.4-56.8 121.5-56.8h49.9l26.4-32.8c20.3-25.2 46.5-45.9 75.8-59.9 29.2-14 61.8-21.4 94.2-21.4v10c-63.3 0-122.4 28.3-162.2 77.5l-27.9 34.6c-.9 1.2-2.4 1.9-3.9 1.9h-52.3c-43.5 0-84.5 18.9-112.7 51.8z" fill="#060d1a"/></g><g id="XMLID_378_"><path id="XMLID_3560_" d="m273 258h-47c-2.8 0-5-2.2-5-5v-13c0-9.9 8.1-18 18-18h34c9.9 0 18 8.1 18 18s-8.1 18-18 18zm-42-10h42c4.4 0 8-3.6 8-8s-3.6-8-8-8h-34c-4.4 0-8 3.6-8 8z" fill="#060d1a"/></g><g id="XMLID_382_"><path id="XMLID_3556_" d="m59 313h-36c-1.9 0-3.7-1.1-4.5-2.9s-.6-3.8.7-5.3c13.7-16.4 33.8-25.8 55.2-25.8h8.6c2.8 0 5 2.2 5 5 0 16-13 29-29 29zm-23.9-10h23.9c8.7 0 16.1-5.9 18.3-14h-3c-14.4 0-28.2 5-39.2 14z" fill="#060d1a"/></g><g id="XMLID_377_"><path id="XMLID_2818_" d="m472 451c-.9 0-1.8-.2-2.6-.7-1.5-.9-2.4-2.5-2.4-4.3v-40.3l-20-10.2-20 10.2v40.3c0 1.7-.9 3.4-2.4 4.3s-3.3 1-4.9.2l-26.3-13.5 4.6-8.9 19.1 9.8v-35.2c0-1.9 1.1-3.6 2.7-4.5l25-12.8c1.4-.7 3.1-.7 4.6 0l25 12.8c1.7.9 2.7 2.6 2.7 4.5v35.2l25-12.8v-55.3l-32.3-16.5c-1.7-.9-2.7-2.6-2.7-4.5v-185.6c0-1.9 1.1-3.6 2.7-4.5l32.3-16.5v-55.2l-25-12.8v35.2c0 1.9-1.1 3.6-2.7 4.5l-25 12.8c-1.4.7-3.1.7-4.6 0l-25-12.8c-1.7-.9-2.7-2.6-2.7-4.5v-35.2l-25.1 12.8v55.3l32.3 16.5c1.7.9 2.7 2.6 2.7 4.5v185.6c0 1.9-1.1 3.6-2.7 4.5l-32.3 16.4v12.2c0 2.8-2.2 5-5 5h-1c-1.3 4.4-3.1 8.6-5.2 12.6l9.2 9.2c.9.9 1.5 2.2 1.5 3.5s-.5 2.6-1.5 3.5l-21.2 21.2c-2 2-5.1 2-7.1 0l-9.2-9.2c-4 2.1-8.2 3.9-12.6 5.2v13c0 2.8-2.2 5-5 5h-30c-2.8 0-5-2.2-5-5v-13c-4.4-1.3-8.6-3.1-12.6-5.2l-9.2 9.2c-2 2-5.1 2-7.1 0l-21-21.2c-2-2-2-5.1 0-7.1l9.2-9.2c-2.1-4-3.9-8.2-5.2-12.6h-13c-2.8 0-5-2.2-5-5v-30c0-2.8 2.2-5 5-5h13c1.3-4.4 3.1-8.6 5.2-12.6l-9.2-9.2c-2-2-2-5.1 0-7.1l21.2-21.2c2-2 5.1-2 7.1 0l9.2 9.2c4-2.1 8.2-3.9 12.6-5.2v-13c0-2.8 2.2-5 5-5h30c2.8 0 5 2.2 5 5v13c4.4 1.3 8.6 3.1 12.6 5.2l9.2-9.2c2-2 5.1-2 7.1 0l21.2 21.2c.9.9 1.5 2.2 1.5 3.5s-.5 2.6-1.5 3.5l-9.2 9.2c2.1 4 3.9 8.2 5.2 12.6h13c2.8 0 5 2.2 5 5v.4l13-6.7v-179.2l-32.3-16.5c-1.7-.9-2.7-2.6-2.7-4.5v-61.4c0-1.9 1.1-3.6 2.7-4.5l35-17.9c1.5-.8 3.4-.7 4.9.2s2.4 2.5 2.4 4.3v40.3l20 10.2 20-10.2v-40.3c0-1.7.9-3.4 2.4-4.3s3.3-1 4.9-.2l35 17.9c1.7.9 2.7 2.6 2.7 4.5v61.4c0 1.9-1.1 3.6-2.7 4.5l-32.5 16.5v179.5l32.3 16.5c1.7.9 2.7 2.6 2.7 4.5v61.4c0 1.9-1.1 3.6-2.7 4.5l-35 17.9c-.7.2-1.5.4-2.3.4zm-162-10h20v-11.8c0-2.3 1.6-4.3 3.8-4.9 6-1.4 11.7-3.8 16.9-7 2-1.2 4.5-.9 6.1.7l8.3 8.3 14.1-14.1-8.3-8.3c-1.6-1.6-1.9-4.2-.7-6.1 3.2-5.2 5.6-10.9 7-16.9.5-2.2 2.4-3.7 4.6-3.8v-10.3c0-1.9 1.1-3.6 2.7-4.5l9.3-4.7v-.6h-11.8c-2.3 0-4.3-1.6-4.9-3.8-1.4-6-3.8-11.7-7-16.9-1.2-2-.9-4.5.7-6.1l8.3-8.3-14.1-14.1-8.3 8.3c-1.6 1.6-4.2 1.9-6.1.7-5.2-3.2-10.9-5.6-16.9-7-2.2-.5-3.8-2.5-3.8-4.9v-11.9h-20v11.8c0 2.3-1.6 4.3-3.8 4.9-6 1.4-11.7 3.8-16.9 7-2 1.2-4.5.9-6.1-.7l-8.3-8.3-14.1 14.1 8.3 8.3c1.6 1.6 1.9 4.2.7 6.1-3.2 5.2-5.6 10.9-7 16.9-.5 2.2-2.6 3.8-4.9 3.8h-11.8v20h11.8c2.3 0 4.3 1.6 4.9 3.8 1.4 6 3.8 11.7 7 16.9 1.2 2 .9 4.5-.7 6.1l-8.3 8.3 14.1 14.1 8.3-8.3c1.6-1.6 4.2-1.9 6.1-.7 5.2 3.2 10.9 5.6 16.9 7 2.2.5 3.8 2.5 3.8 4.9v12zm10-34c-22.1 0-40-17.9-40-40s17.9-40 40-40 40 17.9 40 40-17.9 40-40 40zm0-70c-16.5 0-30 13.5-30 30s13.5 30 30 30 30-13.5 30-30-13.5-30-30-30z" fill="#060d1a"/></g><g id="XMLID_1091_"><path id="XMLID_2600_" d="m251.3 230.2-7.7-6.4 6-7.2c30.2-36.6 74.7-57.6 122.2-57.6h50.2v10h-50.2c-44.5 0-86.2 19.7-114.5 54z" fill="#060d1a"/></g><g id="XMLID_1090_"><path id="XMLID_2449_" d="m226 248h176v10h-176z" fill="#060d1a"/></g><g id="XMLID_984_"><path id="XMLID_959_" d="m256.8 414h-68.8c-2.8 0-5-2.2-5-5v-52c0-2.8 2.2-5 5-5h53v10h-48v42h63.8z" fill="#060d1a"/></g><g id="XMLID_1109_"><path id="XMLID_957_" d="m286.5 352h67.1v10h-67.1z" fill="#060d1a"/></g></g></g></svg>