<svg id="Layer_1" enable-background="new 0 0 512 512" viewBox="0 0 512 512" xmlns="http://www.w3.org/2000/svg" xmlns:xlink="http://www.w3.org/1999/xlink"><linearGradient id="lg1"><stop offset="0" stop-color="#5a5a5a"/><stop offset="1" stop-color="#444"/></linearGradient><linearGradient id="SVGID_1_" gradientUnits="userSpaceOnUse" x1="256" x2="256" xlink:href="#lg1" y1="64.624" y2="215.37"/><linearGradient id="lg2"><stop offset="0" stop-color="#433f43" stop-opacity="0"/><stop offset=".3444" stop-color="#403c40" stop-opacity=".344"/><stop offset=".6223" stop-color="#363336" stop-opacity=".622"/><stop offset=".8763" stop-color="#252425" stop-opacity=".876"/><stop offset="1" stop-color="#1a1a1a"/></linearGradient><linearGradient id="SVGID_00000035516653306650241550000009108450160634841999_" gradientUnits="userSpaceOnUse" x1="393.111" x2="455.131" xlink:href="#lg2" y1="162.829" y2="145.72"/><linearGradient id="SVGID_00000112622308140087951650000006112510201642467262_" gradientUnits="userSpaceOnUse" x1="438.378" x2="438.378" xlink:href="#lg2" y1="147.317" y2="210.151"/><linearGradient id="SVGID_00000101098849347914439020000016793291314176338049_" gradientUnits="userSpaceOnUse" x1="73.622" x2="73.622" xlink:href="#lg2" y1="147.317" y2="210.151"/><linearGradient id="lg3"><stop offset="0" stop-color="#8ac9fe"/><stop offset="1" stop-color="#0172fb"/></linearGradient><linearGradient id="SVGID_00000152982018808541804680000016619120892569648293_" gradientUnits="userSpaceOnUse" x1="432.654" x2="476.051" xlink:href="#lg3" y1="250.62" y2="294.017"/><linearGradient id="lg4"><stop offset="0" stop-color="#2740b0" stop-opacity="0"/><stop offset="1" stop-color="#2740b0"/></linearGradient><linearGradient id="SVGID_00000183243104184446057350000013652269312472145800_" gradientUnits="userSpaceOnUse" x1="477.277" x2="454.057" xlink:href="#lg4" y1="272.677" y2="272.677"/><linearGradient id="SVGID_00000039828834141308866980000010377436422074003376_" gradientUnits="userSpaceOnUse" x1="454.711" x2="454.711" xlink:href="#lg4" y1="269.723" y2="332.188"/><linearGradient id="SVGID_00000016792759106733671550000006417284038011633069_" gradientUnits="userSpaceOnUse" x1="450.993" x2="500.892" xlink:href="#lg4" y1="269.47" y2="312.513"/><linearGradient id="SVGID_00000078762843048811016740000017359654603072917902_" gradientUnits="userSpaceOnUse" x1="407.416" x2="433.705" xlink:href="#lg1" y1="272.677" y2="272.677"/><linearGradient id="SVGID_00000107585106314448531510000015536229161448968873_" gradientTransform="matrix(-1 0 0 1 1212.179 0)" gradientUnits="userSpaceOnUse" x1="1132.833" x2="1176.23" xlink:href="#lg3" y1="250.62" y2="294.017"/><linearGradient id="SVGID_00000018198532991166479650000002869401985072844680_" gradientTransform="matrix(-1 0 0 1 1212.179 0)" gradientUnits="userSpaceOnUse" x1="1154.891" x2="1154.891" xlink:href="#lg4" y1="269.723" y2="332.188"/><linearGradient id="SVGID_00000019665302230550978750000015080454027762114472_" gradientTransform="matrix(-1 0 0 1 1212.179 0)" gradientUnits="userSpaceOnUse" x1="1151.172" x2="1201.071" xlink:href="#lg4" y1="269.47" y2="312.513"/><linearGradient id="SVGID_00000096751070292910201410000013152259601172468393_" gradientUnits="userSpaceOnUse" x1="70.228" x2="102.251" xlink:href="#lg1" y1="272.677" y2="272.677"/><linearGradient id="SVGID_00000075140516320405717110000008994150727967890580_" gradientUnits="userSpaceOnUse" x1="256" x2="256" xlink:href="#lg3" y1="6.881" y2="69.715"/><linearGradient id="SVGID_00000000182834691764190980000014609553000687423145_" gradientUnits="userSpaceOnUse" x1="256" x2="256" xlink:href="#lg4" y1="48.941" y2="11.591"/><linearGradient id="SVGID_00000079450205953739911160000015474549813740989320_" gradientUnits="userSpaceOnUse" x1="146.145" x2="363.859" y1="188.56" y2="473.942"><stop offset="0" stop-color="#fe5694"/><stop offset="1" stop-color="#e41f2d"/></linearGradient><linearGradient id="lg5"><stop offset="0" stop-color="#c41926" stop-opacity="0"/><stop offset=".3626" stop-color="#bf1c27" stop-opacity=".363"/><stop offset=".8" stop-color="#b12529" stop-opacity=".8"/><stop offset="1" stop-color="#a72b2b"/></linearGradient><linearGradient id="SVGID_00000013911669754856238310000005209968908516185535_" gradientUnits="userSpaceOnUse" x1="256" x2="256" xlink:href="#lg5" y1="496.956" y2="506.388"/><linearGradient id="SVGID_00000160151227395029431340000012533057530804824992_" gradientUnits="userSpaceOnUse" x1="370.551" x2="394.835" xlink:href="#lg5" y1="335.911" y2="335.911"/><linearGradient id="SVGID_00000008843034064508929870000014502003399039333551_" gradientUnits="userSpaceOnUse" x1="363.422" x2="363.422" xlink:href="#lg5" y1="491.072" y2="458.603"/><linearGradient id="SVGID_00000097487298702431355380000002983267694240008604_" gradientUnits="userSpaceOnUse" x1="376.517" x2="396.469" xlink:href="#lg5" y1="476.365" y2="476.365"/><linearGradient id="SVGID_00000085217143799204129600000009752951973129416889_" gradientUnits="userSpaceOnUse" x1="254.459" x2="255.93" xlink:href="#lg3" y1="457.507" y2="505.561"/><linearGradient id="SVGID_00000099639020866879367010000009908502597055743662_" gradientUnits="userSpaceOnUse" x1="254.459" x2="255.93" y1="457.507" y2="505.561"><stop offset="0" stop-color="#f5fbff"/><stop offset="1" stop-color="#91dcfa"/></linearGradient><linearGradient id="lg6"><stop offset="0" stop-color="#60b7ff" stop-opacity="0"/><stop offset="1" stop-color="#60b7ff"/></linearGradient><linearGradient id="SVGID_00000077326400031673760030000017224425076745624973_" gradientUnits="userSpaceOnUse" x1="363.114" x2="383.75" xlink:href="#lg6" y1="481.464" y2="481.464"/><linearGradient id="SVGID_00000004515370935648820190000015599034645923520191_" gradientUnits="userSpaceOnUse" x1="255.311" x2="259.888" xlink:href="#lg6" y1="473.597" y2="522.304"/><linearGradient id="SVGID_00000023242970363479913120000006576791093243509906_" gradientUnits="userSpaceOnUse" x1="256.188" x2="252.266" xlink:href="#lg6" y1="471.588" y2="510.162"/><linearGradient id="SVGID_00000035515923834341763020000001802529786686130357_" gradientUnits="userSpaceOnUse" x1="256.001" x2="260.251" xlink:href="#lg6" y1="460.432" y2="499.986"/><linearGradient id="SVGID_00000080890094332470952890000010446471189081452943_" gradientUnits="userSpaceOnUse" x1="256.794" x2="256.794" xlink:href="#lg6" y1="470.804" y2="455.436"/><linearGradient id="SVGID_00000085237322773454371610000007955421645657114301_" gradientUnits="userSpaceOnUse" x1="306.046" x2="277.167" xlink:href="#lg5" y1="395.932" y2="347.175"/><linearGradient id="SVGID_00000112633735113894087290000002972085622394565538_" gradientUnits="userSpaceOnUse" x1="199.393" x2="289.821" y1="282.913" y2="373.341"><stop offset="0" stop-color="#fef0ae"/><stop offset="1" stop-color="#fac600"/></linearGradient><linearGradient id="SVGID_00000042705174273024697310000011332651866161991099_" gradientUnits="userSpaceOnUse" x1="251.384" x2="269.479" y1="327.962" y2="355.441"><stop offset="0" stop-color="#fe9738" stop-opacity="0"/><stop offset="1" stop-color="#fe9738"/></linearGradient><linearGradient id="SVGID_00000179621403323814350430000010796218766590266770_" gradientUnits="userSpaceOnUse" x1="357.271" x2="385.785" xlink:href="#lg4" y1="58.393" y2="74.076"/><g><g><g><path d="m454.903 294.483c-8.284 0-15-6.716-15-15v-53.08c0-101.404-82.498-183.903-183.903-183.903s-183.903 82.499-183.903 183.903v53.08c0 8.284-6.716 15-15 15s-15-6.716-15-15v-53.08c0-57.136 22.25-110.852 62.651-151.252s94.116-62.651 151.252-62.651 110.852 22.25 151.252 62.651 62.651 94.117 62.651 151.252v53.08c0 8.285-6.715 15-15 15z" fill="url(#SVGID_1_)"/></g><path d="m469.903 279.483v-53.08c0-57.136-22.25-110.852-62.651-151.252-20.155-20.155-43.626-35.791-69.18-46.403v33.115c60.319 30.209 101.831 92.613 101.831 164.54v53.08c0 8.284 6.716 15 15 15s15-6.715 15-15z" fill="url(#SVGID_00000035516653306650241550000009108450160634841999_)"/><g><path d="m439.903 226.403v53.08c0 8.284 6.716 15 15 15s15-6.716 15-15v-53.08c0-37.411-9.542-73.355-27.47-105.056h-35.58c20.818 29.803 33.05 66.025 33.05 105.056z" fill="url(#SVGID_00000112622308140087951650000006112510201642467262_)"/><path d="m57.097 294.483c8.284 0 15-6.716 15-15v-53.08c0-39.031 12.232-75.254 33.05-105.056h-35.58c-17.928 31.701-27.47 67.645-27.47 105.056v53.08c0 8.285 6.715 15 15 15z" fill="url(#SVGID_00000101098849347914439020000016793291314176338049_)"/></g><g><g><g><circle cx="454.711" cy="272.677" fill="url(#SVGID_00000152982018808541804680000016619120892569648293_)" r="57.289"/><circle cx="454.711" cy="272.677" fill="url(#SVGID_00000183243104184446057350000013652269312472145800_)" r="57.289"/><path d="m397.423 272.677c0 31.639 25.649 57.289 57.289 57.289s57.289-25.649 57.289-57.289c0-6.852-1.207-13.422-3.414-19.512h-107.75c-2.207 6.091-3.414 12.66-3.414 19.512z" fill="url(#SVGID_00000039828834141308866980000010377436422074003376_)"/><path d="m414.202 313.187c22.373 22.373 58.646 22.373 81.018 0 22.373-22.373 22.372-58.646 0-81.018-4.845-4.845-10.344-8.637-16.211-11.384l-76.191 76.191c2.747 5.866 6.539 11.365 11.384 16.211z" fill="url(#SVGID_00000016792759106733671550000006417284038011633069_)"/></g></g><path d="m424.408 355.157c-17.63 0-31.923-14.292-31.923-31.923v-101.114c0-17.63 14.292-31.923 31.923-31.923 17.63 0 31.923 14.292 31.923 31.923v101.115c0 17.63-14.292 31.922-31.923 31.922z" fill="url(#SVGID_00000078762843048811016740000017359654603072917902_)"/></g><g><g><g><circle cx="57.289" cy="272.677" fill="url(#SVGID_00000107585106314448531510000015536229161448968873_)" r="57.289"/><path d="m114.577 272.677c0 31.639-25.649 57.289-57.289 57.289-31.639 0-57.288-25.649-57.288-57.289 0-6.852 1.207-13.422 3.414-19.512h107.75c2.206 6.091 3.413 12.66 3.413 19.512z" fill="url(#SVGID_00000018198532991166479650000002869401985072844680_)"/><path d="m97.798 313.187c-22.373 22.373-58.646 22.373-81.018 0-22.373-22.373-22.373-58.646 0-81.018 4.845-4.845 10.344-8.637 16.211-11.384l76.191 76.191c-2.747 5.866-6.539 11.365-11.384 16.211z" fill="url(#SVGID_00000019665302230550978750000015080454027762114472_)"/></g></g><path d="m87.592 355.157c17.63 0 31.923-14.292 31.923-31.923v-101.114c0-17.63-14.292-31.923-31.923-31.923-17.63 0-31.923 14.292-31.923 31.923v101.115c0 17.63 14.292 31.922 31.923 31.922z" fill="url(#SVGID_00000096751070292910201410000013152259601172468393_)"/></g><path d="m256 0c-47.813 0-93.356 14.732-131.466 42.031-5.49 3.933-7.824 10.958-5.907 17.434l7.012 23.691c3.182 10.751 16.21 15.015 25.046 8.113 29.077-22.715 65.641-36.269 105.315-36.269s76.238 13.554 105.315 36.269c8.836 6.903 21.863 2.639 25.046-8.113l7.012-23.691c1.917-6.476-.417-13.501-5.907-17.434-38.11-27.299-83.653-42.031-131.466-42.031z" fill="url(#SVGID_00000075140516320405717110000008994150727967890580_)"/><path d="m388.84 74.76-2.48 8.4c-3.18 10.75-16.21 15.01-25.04 8.11-29.08-22.72-65.65-36.27-105.32-36.27s-76.24 13.55-105.32 36.27c-8.83 6.9-21.86 2.64-25.04-8.11l-2.48-8.4c37.66-29.96 84-46.22 132.84-46.22s95.18 16.26 132.84 46.22z" fill="url(#SVGID_00000000182834691764190980000014609553000687423145_)"/></g><g><g><path d="m381.986 512h-241.845c-14.713 0-26.641-11.927-26.641-26.641v-295.519c0-16.579 13.44-30.019 30.019-30.019h238.467c9.12 0 16.514 7.393 16.514 16.514v319.151c0 9.121-7.393 16.514-16.514 16.514z" fill="url(#SVGID_00000079450205953739911160000015474549813740989320_)"/><path d="m113.5 472.929v12.431c0 14.713 11.927 26.641 26.641 26.641h241.846c9.12 0 16.514-7.393 16.514-16.514v-22.557h-285.001z" fill="url(#SVGID_00000013911669754856238310000005209968908516185535_)"/><path d="m381.986 159.822h-122.424v352.178h122.424c9.12 0 16.514-7.393 16.514-16.514v-319.151c0-9.12-7.394-16.513-16.514-16.513z" fill="url(#SVGID_00000160151227395029431340000012533057530804824992_)"/><path d="m373.753 457.036-45.409 54.964h53.642c9.12 0 16.514-7.393 16.514-16.514v-54.757c0 9.006-7.301 16.306-16.306 16.306h-8.441z" fill="url(#SVGID_00000008843034064508929870000014502003399039333551_)"/><path d="m373.753 457.036-45.409 54.964h53.642c9.12 0 16.514-7.393 16.514-16.514v-54.757c0 9.006-7.301 16.306-16.306 16.306h-8.441z" fill="url(#SVGID_00000097487298702431355380000002983267694240008604_)"/><path d="m373.753 505.893h-223.61c-13.492 0-24.429-10.937-24.429-24.429 0-13.492 10.937-24.429 24.429-24.429h223.61c5.797 0 10.497 4.699 10.497 10.497v27.864c0 5.797-4.7 10.497-10.497 10.497z" fill="url(#SVGID_00000085217143799204129600000009752951973129416889_)"/><path d="m373.753 505.893h-223.61c-13.492 0-24.429-10.937-24.429-24.429 0-13.492 10.937-24.429 24.429-24.429h223.61c5.797 0 10.497 4.699 10.497 10.497v27.864c0 5.797-4.7 10.497-10.497 10.497z" fill="url(#SVGID_00000099639020866879367010000009908502597055743662_)"/><path d="m373.753 457.036h-45.409v48.857h45.409c5.797 0 10.497-4.699 10.497-10.497v-27.864c0-5.797-4.7-10.496-10.497-10.496z" fill="url(#SVGID_00000077326400031673760030000017224425076745624973_)"/><path d="m373.753 457.036h-223.61c-12.035 0-22.03 8.705-24.049 20.161 2.02 11.456 12.015 20.161 24.049 20.161h223.61c5.797 0 10.497-4.699 10.497-10.497v-19.328c0-5.798-4.7-10.497-10.497-10.497z" fill="url(#SVGID_00000004515370935648820190000015599034645923520191_)"/><path d="m373.753 457.036h-223.61c-10.489 0-19.43 6.611-22.893 15.893 3.462 9.282 12.404 15.893 22.893 15.893h223.61c5.797 0 10.497-4.699 10.497-10.497v-10.793c0-5.797-4.7-10.496-10.497-10.496z" fill="url(#SVGID_00000023242970363479913120000006576791093243509906_)"/><path d="m373.753 457.036h-223.61c-8.796 0-16.503 4.651-20.805 11.625 4.301 6.975 12.009 11.625 20.805 11.625h223.61c5.797 0 10.497-4.699 10.497-10.497v-2.258c0-5.796-4.7-10.495-10.497-10.495z" fill="url(#SVGID_00000035515923834341763020000001802529786686130357_)"/><path d="m373.753 457.036h-223.61c-8.796 0-16.503 4.651-20.805 11.625 4.301 6.975 12.009 11.625 20.805 11.625h223.61c5.797 0 10.497-4.699 10.497-10.497v-2.258c0-5.796-4.7-10.495-10.497-10.495z" fill="url(#SVGID_00000080890094332470952890000010446471189081452943_)"/></g><path d="m334.726 299.633-139.621 97.612 114.755 114.755h72.126c9.12 0 16.514-7.393 16.514-16.514v-132.079z" fill="url(#SVGID_00000085237322773454371610000007955421645657114301_)"/><g><path d="m332.503 297.761-121.786-80.379c-8.243-5.441-19.228.471-19.228 10.348v160.757c0 9.877 10.985 15.789 19.228 10.348l121.786-80.379c7.425-4.9 7.425-15.794 0-20.695z" fill="url(#SVGID_00000112633735113894087290000002972085622394565538_)"/><path d="m332.503 297.761-54.976-36.284-86.038 56.785v70.226c0 9.877 10.985 15.789 19.229 10.348l121.786-80.379c7.424-4.901 7.424-15.795-.001-20.696z" fill="url(#SVGID_00000042705174273024697310000011332651866161991099_)"/></g></g><path d="m387.466 42.031c-27.084-19.401-57.924-32.447-90.664-38.376v56.262c23.839 5.846 45.738 16.685 64.513 31.352 8.836 6.902 21.863 2.639 25.046-8.113l7.012-23.692c1.917-6.475-.417-13.5-5.907-17.433z" fill="url(#SVGID_00000179621403323814350430000010796218766590266770_)"/></g><g/><g/><g/><g/><g/><g/><g/><g/><g/><g/><g/><g/><g/><g/><g/></svg>