<svg width="60" height="60" viewBox="0 0 60 60" fill="none" xmlns="http://www.w3.org/2000/svg">
<path d="M55 40.475C55 49.575 49.575 55 40.475 55H37.5C36.125 55 35 53.875 35 52.5V38.075C35 37.4 35.55 36.825 36.225 36.825L40.625 36.75C40.975 36.725 41.275 36.475 41.35 36.125L42.225 31.35C42.3 30.9 41.95 30.475 41.475 30.475L36.15 30.55C35.45 30.55 34.9 30 34.875 29.325L34.775 23.2C34.775 22.8 35.1 22.45 35.525 22.45L41.525 22.35C41.95 22.35 42.275 22.025 42.275 21.6L42.175 15.6C42.175 15.175 41.85 14.85 41.425 14.85L34.675 14.95C30.525 15.025 27.225 18.425 27.3 22.575L27.425 29.45C27.45 30.15 26.9 30.7 26.2 30.725L23.2 30.775C22.775 30.775 22.45 31.1 22.45 31.525L22.525 36.275C22.525 36.7 22.85 37.025 23.275 37.025L26.275 36.975C26.975 36.975 27.525 37.525 27.55 38.2L27.775 52.45C27.8 53.85 26.675 55 25.275 55H19.525C10.425 55 5 49.575 5 40.45V19.525C5 10.425 10.425 5 19.525 5H40.475C49.575 5 55 10.425 55 19.525V40.475Z" fill="#64B346"/>
</svg>
