<?xml version="1.0" encoding="iso-8859-1"?>
<!-- Generator: Adobe Illustrator 19.0.0, SVG Export Plug-In . SVG Version: 6.00 Build 0)  -->
<svg version="1.1" id="Capa_1" xmlns="http://www.w3.org/2000/svg" xmlns:xlink="http://www.w3.org/1999/xlink" x="0px" y="0px"
	 viewBox="0 0 512 512" style="enable-background:new 0 0 512 512;" xml:space="preserve">
<g>
	<polyline style="fill:#E0B78E;" points="299.951,437.195 299.951,502 368.736,502 368.736,501.411 	"/>
	<polyline style="fill:#E0B78E;" points="368.736,360.084 368.736,317.505 334.295,290.923 299.951,317.505 299.951,498.333 	"/>
</g>
<path style="fill:#F2D788;" d="M386.431,261.531c-6.042,0-11.956-0.549-17.695-1.6v100.153c11.066-16.697,25.08-27.569,25.08-27.569
	s4.443,3.447,10.301,9.439v-82.021C398.381,260.982,392.47,261.531,386.431,261.531z"/>
<path style="fill:#34E184;" d="M450.567,90.224c0.952-4.447,1.453-9.062,1.453-13.793c0-36.226-29.365-65.593-65.589-65.593
	s-65.59,29.367-65.59,65.593c0,4.731,0.501,9.346,1.453,13.793c-20.539,17.904-33.519,44.259-33.519,73.646
	c0,53.936,43.722,97.66,97.655,97.66c53.934,0,97.655-43.724,97.655-97.66C484.086,134.483,471.106,108.128,450.567,90.224z"/>
<path style="fill:#53C3C0;" d="M251.497,93.861c-1.194-18.657-16.361-33.758-35.021-34.894c-2.564-0.156-5.074-0.048-7.51,0.29
	c0.001-0.1,0.007-0.198,0.007-0.298c0-13.057-10.585-23.642-23.641-23.642c-6.473,0-12.336,2.604-16.605,6.818
	C161.611,23.357,143.477,10,122.205,10c-26.736,0-48.541,21.09-49.702,47.541c-0.001,0.015-0.007,0.024-0.007,0.039
	c-0.272,3.476-4.328,2.798-4.328,2.798l0.006,0.009c-2.99-0.553-6.104-0.755-9.301-0.54C40.58,61.074,25.747,75.889,24.508,94.182
	c-0.083,1.232-0.106,2.452-0.072,3.658c0.572,19.931,16.909,35.913,36.98,35.913h152.736c20.161,0.001,36.6-15.945,37.395-35.913
	C251.598,96.529,251.583,95.202,251.497,93.861z"/>
<path d="M214.153,143.753c-0.002,0-0.001,0-0.003,0H61.415c-25.606,0-46.241-20.041-46.976-45.626
	c-0.044-1.52-0.014-3.074,0.09-4.617c1.58-23.317,20.355-42.077,43.674-43.641c1.688-0.112,3.381-0.134,5.073-0.067
	C68.012,21.351,92.621,0,122.206,0c20.585,0,39.626,10.797,50.449,27.781c3.976-1.617,8.264-2.464,12.677-2.464
	c15.088,0,27.888,9.985,32.141,23.693c23.605,1.629,42.49,20.569,44.004,44.211c0.106,1.663,0.127,3.35,0.062,5.013
	C260.521,123.76,239.707,143.753,214.153,143.753z M61.365,69.763c-0.608,0-1.216,0.021-1.822,0.062
	c-13.381,0.897-24.154,11.658-25.059,25.032c-0.062,0.9-0.079,1.807-0.053,2.691c0.422,14.695,12.274,26.204,26.983,26.204H214.15
	c14.778,0.001,26.815-11.557,27.402-26.311c0.039-0.975,0.026-1.966-0.036-2.942v-0.001c-0.879-13.729-11.905-24.714-25.648-25.551
	c-1.836-0.111-3.699-0.04-5.529,0.214c-2.892,0.398-5.795-0.476-7.979-2.396c-2.185-1.921-3.424-4.698-3.396-7.606
	c0.002-0.105,0.004-0.21,0.008-0.313c-0.063-7.47-6.158-13.528-13.642-13.528c-3.607,0-7.01,1.397-9.581,3.935
	c-2.408,2.377-5.854,3.372-9.156,2.653c-3.305-0.722-6.021-3.064-7.22-6.228C153.555,30.319,138.618,20,122.206,20
	c-21.333,0-38.777,16.683-39.713,37.979c-0.003,0.076-0.008,0.151-0.013,0.227c-0.011,0.172-0.027,0.345-0.048,0.518
	c-0.373,3.58-2.075,6.717-4.82,8.862c-3.768,2.946-8.108,2.979-10.222,2.771c-0.344-0.027-0.688-0.072-1.032-0.136
	C64.708,69.916,63.035,69.763,61.365,69.763z"/>
<polygon style="fill:#E0B78E;" points="93.208,502 24.327,502 24.327,317.505 58.767,290.923 93.208,317.505 "/>
<polygon style="fill:#C49E71;" points="162.09,502 93.208,502 93.208,317.505 127.649,290.923 162.09,317.505 "/>
<polygon style="fill:#E0B78E;" points="230.972,502 162.09,502 162.09,317.505 196.531,290.923 230.972,317.505 "/>
<polygon style="fill:#C49E71;" points="299.951,502 230.972,502 230.972,317.505 265.413,290.923 299.951,317.505 "/>
<path d="M196.525,347.83c-0.649,0-1.3-0.061-1.95-0.19c-0.64-0.13-1.27-0.32-1.869-0.57c-0.601-0.25-1.181-0.56-1.73-0.92
	c-0.54-0.37-1.06-0.79-1.52-1.25c-1.86-1.859-2.931-4.439-2.931-7.069c0-0.65,0.07-1.301,0.2-1.95c0.13-0.64,0.32-1.271,0.57-1.87
	s0.56-1.18,0.92-1.73c0.359-0.539,0.78-1.06,1.24-1.52s0.979-0.88,1.52-1.24c0.55-0.359,1.13-0.67,1.73-0.92
	c0.6-0.25,1.229-0.439,1.869-0.57c1.29-0.26,2.62-0.26,3.91,0c0.641,0.131,1.271,0.32,1.87,0.57c0.601,0.25,1.181,0.561,1.73,0.92
	c0.54,0.36,1.06,0.78,1.52,1.24s0.88,0.98,1.24,1.52c0.36,0.551,0.67,1.131,0.92,1.73s0.44,1.23,0.57,1.87
	c0.13,0.649,0.2,1.3,0.2,1.95c0,0.66-0.07,1.31-0.2,1.96c-0.13,0.64-0.32,1.26-0.57,1.87c-0.25,0.6-0.56,1.18-0.92,1.72
	c-0.36,0.55-0.78,1.06-1.24,1.52s-0.979,0.88-1.52,1.25c-0.55,0.36-1.13,0.67-1.73,0.92c-0.6,0.25-1.229,0.44-1.87,0.57
	C197.836,347.77,197.185,347.83,196.525,347.83z"/>
<path d="M58.765,347.83c-0.65,0-1.31-0.061-1.95-0.19c-0.64-0.13-1.27-0.32-1.87-0.57c-0.609-0.25-1.189-0.56-1.729-0.92
	c-0.55-0.37-1.061-0.79-1.521-1.25s-0.88-0.97-1.239-1.52c-0.36-0.54-0.67-1.12-0.92-1.72c-0.25-0.61-0.44-1.23-0.57-1.87
	c-0.13-0.65-0.2-1.3-0.2-1.96c0-0.65,0.07-1.301,0.2-1.95c0.13-0.64,0.32-1.271,0.57-1.87s0.56-1.18,0.92-1.73
	c0.359-0.539,0.779-1.06,1.239-1.52s0.971-0.88,1.521-1.24c0.54-0.359,1.12-0.67,1.729-0.92c0.601-0.25,1.23-0.439,1.87-0.57
	c1.29-0.26,2.62-0.26,3.91,0c0.63,0.131,1.26,0.32,1.87,0.57c0.6,0.25,1.18,0.561,1.72,0.92c0.55,0.36,1.061,0.78,1.521,1.24
	s0.88,0.98,1.25,1.52c0.359,0.551,0.67,1.131,0.92,1.73s0.439,1.23,0.569,1.87c0.131,0.649,0.19,1.3,0.19,1.95
	c0,2.63-1.07,5.21-2.93,7.069c-0.46,0.46-0.971,0.88-1.521,1.25c-0.54,0.36-1.12,0.67-1.72,0.92c-0.61,0.25-1.24,0.44-1.87,0.57
	C60.075,347.77,59.416,347.83,58.765,347.83z"/>
<path style="fill:#FF6F52;" d="M352.704,408.984c9.714,2.466,19.055,6.803,26.087,14.131c5.052,5.264,8.513,11.655,10.828,18.472
	c1.383,0.133,2.783,0.201,4.198,0.201s2.816-0.068,4.2-0.201c2.315-6.818,5.776-13.208,10.827-18.472
	c7.041-7.336,16.396-11.675,26.122-14.139c0.33-1.95,0.502-3.949,0.502-5.987v-33.6c-22.87,0-41.427,2.534-41.64,24.553h-0.016
	c-0.211-22.02-18.771-24.553-41.644-24.553l0.036,33.6C352.204,405.029,352.375,407.031,352.704,408.984z"/>
<path style="fill:#F5E996;" d="M393.812,393.942h0.016c0.177-18.367,13.119-23.177,30.68-24.267
	c-11.155-22.006-30.691-37.16-30.691-37.16s-19.536,15.155-30.69,37.16C380.691,370.765,393.635,375.574,393.812,393.942z"/>
<g>
	<path style="fill:#11AB67;" d="M472.658,484.366c-24.196,25.211-75.718,15.023-75.718,15.023s-12.292-51.063,11.904-76.274
		s75.718-15.023,75.718-15.023S496.855,459.154,472.658,484.366z"/>
	<path style="fill:#11AB67;" d="M314.978,484.366c24.196,25.211,75.718,15.023,75.718,15.023s12.292-51.063-11.904-76.274
		c-24.196-25.211-75.718-15.023-75.718-15.023S290.781,459.154,314.978,484.366z"/>
</g>
<path d="M494.285,405.75c-0.914-3.795-3.953-6.712-7.783-7.469c-1.337-0.265-20.085-3.842-41.034-1.334v-27.559
	c0-5.522-4.478-10-10-10c-1.583,0-3.328,0-5.19,0.03c-5.009-8.473-10.904-15.768-16.16-21.459v-70.036
	c45.989-12.248,79.97-54.256,79.97-104.052c0-29.217-11.865-57.08-32.74-77.316c0.448-3.347,0.674-6.733,0.674-10.123
	c0-41.682-33.909-75.593-75.589-75.593c-41.681,0-75.59,33.911-75.59,75.593c0,3.39,0.227,6.776,0.674,10.123
	c-20.875,20.236-32.74,48.1-32.74,77.316c0,49.792,33.976,91.798,79.961,104.049v29.235l-18.331-14.148
	c-3.605-2.782-8.632-2.778-12.231,0.008l-28.24,21.858l-28.421-21.874c-3.602-2.771-8.614-2.768-12.21,0.009l-28.33,21.866
	l-28.331-21.866c-3.6-2.779-8.621-2.779-12.221,0l-28.33,21.866l-28.331-21.866c-3.6-2.779-8.621-2.779-12.221,0l-28.33,21.866
	L64.88,283.008c-3.6-2.779-8.621-2.779-12.221,0l-34.44,26.582c-2.453,1.894-3.89,4.817-3.89,7.916V502c0,5.522,4.478,10,10,10
	h344.409c1.276,0,2.497-0.24,3.619-0.676c11.291-0.403,19.417-1.955,20.281-2.126c0.404-0.08,0.798-0.184,1.183-0.31
	c0.384,0.126,0.779,0.23,1.183,0.31c0.993,0.197,11.594,2.222,25.57,2.222c18.709,0,43.466-3.63,59.302-20.131v0.001
	C507.539,462.464,494.839,408.053,494.285,405.75z M83.209,492H68.767V377.791c0-5.522-4.478-10-10-10s-10,4.478-10,10V492h-14.44
	V322.419l24.44-18.864l24.441,18.864L83.209,492L83.209,492z M152.091,492h-48.882V322.419l24.44-18.864l24.441,18.864L152.091,492
	L152.091,492z M220.972,492h-14.441V377.791c0-5.522-4.478-10-10-10s-10,4.478-10,10V492h-14.44V322.419l24.44-18.864l24.441,18.864
	V492z M289.951,492h-48.979V322.419l24.449-18.87l24.529,18.879V492H289.951z M394.117,322.52c-2.262-0.068-4.543,0.63-6.431,2.094
	c-0.354,0.275-3.972,3.109-8.95,7.974v-61.329c2.542,0.18,5.108,0.272,7.695,0.272c2.584,0,5.147-0.092,7.686-0.272V322.52z
	 M393.827,345.835c3.981,3.79,9.336,9.402,14.329,16.294c-5.247,1.489-10.248,3.787-14.336,7.333
	c-4.087-3.544-9.086-5.841-14.331-7.33C384.479,355.26,389.843,349.636,393.827,345.835z M298.775,163.871
	c0-25.344,10.968-49.439,30.091-66.108c2.74-2.389,3.968-6.077,3.207-9.632c-0.817-3.816-1.231-7.753-1.231-11.699
	c0-30.654,24.938-55.593,55.59-55.593c30.651,0,55.589,24.938,55.589,55.593c0,3.946-0.414,7.883-1.231,11.699
	c-0.761,3.555,0.467,7.243,3.208,9.632c19.122,16.669,30.09,40.765,30.09,66.108c0,44.955-34.013,82.115-77.655,87.093v-50.386
	c0.049-0.043,0.098-0.087,0.146-0.132l38.101-35.102c4.063-3.742,4.321-10.068,0.579-14.13c-3.742-4.063-10.068-4.322-14.13-0.579
	l-24.696,22.752v-26.074l26.914-24.957c4.05-3.756,4.288-10.083,0.533-14.133c-3.757-4.05-10.084-4.285-14.133-0.533l-13.314,12.346
	V97.547c0-5.522-4.478-10-10-10s-10,4.478-10,10v75.842l-24.697-22.753c-4.063-3.743-10.389-3.482-14.13,0.579
	c-3.742,4.062-3.483,10.388,0.579,14.13l38.101,35.102c0.049,0.045,0.098,0.089,0.147,0.133v50.385
	C332.789,245.986,298.775,208.826,298.775,163.871z M309.951,322.41l24.353-18.849l24.433,18.857v34.727
	c-0.467,0.748-0.927,1.505-1.381,2.272c-1.862-0.03-3.606-0.03-5.188-0.03c-2.654,0-5.199,1.055-7.075,2.933
	c-1.875,1.878-2.928,4.424-2.925,7.078l0.03,27.551c-12.674-1.521-24.545-0.813-32.247,0.042V322.41z M382.227,490.583
	c-3.668,0.437-8.038,0.773-12.768,0.854c-0.239-0.017-0.48-0.026-0.723-0.026c-0.315,0-0.627,0.015-0.936,0.044
	c-15.704,0.063-34.843-2.795-45.608-14.013v-0.001c-14.384-14.986-13.196-44.545-10.65-60.544
	c16.072-1.913,45.591-1.908,60.035,13.143C385.961,445.025,384.773,474.584,382.227,490.583z M401.63,416.189
	c-3.08,3.209-5.66,6.736-7.812,10.472c-2.152-3.737-4.731-7.263-7.812-10.472c-6.713-6.994-15.027-11.675-23.804-14.748
	l-0.024-21.784c19.896,1.209,21.558,6.435,21.634,14.382c0.054,5.484,4.53,9.903,10.016,9.903s9.946-4.418,10-9.903
	c0.076-7.948,1.739-13.174,21.64-14.382v21.773C416.678,404.503,408.351,409.187,401.63,416.189z M465.443,477.44L465.443,477.44
	c-14.384,14.989-43.965,15.012-60.052,13.126c-0.859-5.34-1.566-12.189-1.587-19.504c0.001-0.279,0.001-0.559,0-0.84
	c0.062-14.363,2.82-30.353,12.255-40.183c14.383-14.987,43.961-15.015,60.052-13.126C478.682,432.893,479.89,462.388,465.443,477.44
	z"/>
<g>
</g>
<g>
</g>
<g>
</g>
<g>
</g>
<g>
</g>
<g>
</g>
<g>
</g>
<g>
</g>
<g>
</g>
<g>
</g>
<g>
</g>
<g>
</g>
<g>
</g>
<g>
</g>
<g>
</g>
</svg>
