<svg height="512pt" viewBox="0 -35 512.00038 512" width="512pt" xmlns="http://www.w3.org/2000/svg"><path d="m337.402344 50.136719c-1.199219-.175781-2.039063-1.269531-1.90625-2.476563.136718-1.265625.207031-2.546875.207031-3.851562 0-20-16.210937-36.210938-36.210937-36.210938-13.773438 0-25.742188 7.691406-31.863282 19.007813-.839844 1.550781-3.109375 1.550781-3.949218 0-6.125-11.316407-18.09375-19.007813-31.867188-19.007813-20 0-36.210938 16.210938-36.210938 36.210938 0 1.210937.0625 2.410156.179688 3.589844.128906 1.265624-.792969 2.378906-2.058594 2.488281-12.46875 1.046875-23.132812 8.402343-28.796875 18.871093-.859375 1.582032-3.125 1.515626-3.984375-.066406-6.578125-12.101562-19.847656-20.035156-34.84375-18.820312-17.667968 1.425781-31.871094 15.800781-33.109375 33.484375-1.480469 21.175781 15.261719 38.820312 36.125 38.820312 15.453125 0 28.640625-9.6875 33.839844-23.316406 5.195313 13.628906 18.382813 23.316406 33.835937 23.316406 15.457032 0 28.640626-9.6875 33.839844-23.316406 5.199219 13.628906 18.382813 23.316406 33.839844 23.316406 15.453125 0 28.640625-9.6875 33.839844-23.316406 5.535156 14.511719 20.121094 24.546875 36.859375 23.191406 17.421875-1.410156 31.527343-15.421875 33.050781-32.835937 1.707031-19.648438-12.277344-36.378906-30.816406-39.078125zm0 0" fill="#ffa300"/><path d="m337.402344 50.136719c-1.199219-.175781-2.039063-1.269531-1.90625-2.476563.136718-1.265625.207031-2.546875.207031-3.851562 0-20-16.210937-36.210938-36.210937-36.210938-5.484376 0-10.671876 1.234375-15.328126 3.417969 12.320313 5.777344 20.855469 18.289063 20.855469 32.792969 0 1.304687-.074219 2.585937-.210937 3.851562-.128906 1.207032.707031 2.300782 1.910156 2.476563 18.535156 2.699219 32.523438 19.429687 30.808594 39.078125-1.140625 13.050781-9.351563 24.191406-20.726563 29.546875 5.503907 2.582031 11.765625 3.824219 18.363281 3.289062 17.421876-1.410156 31.53125-15.421875 33.050782-32.835937 1.710937-19.648438-12.273438-36.378906-30.8125-39.078125zm0 0" fill="#ff8b00"/><path d="m429.953125 101.03125c0 20-16.214844 36.210938-36.214844 36.210938s-36.210937-16.210938-36.210937-36.210938 16.210937-36.214844 36.210937-36.214844 36.214844 16.214844 36.214844 36.214844zm0 0" fill="#ffa300"/><path d="m393.738281 64.816406c-4.675781 0-9.140625.894532-13.242187 2.511719 13.445312 5.285156 22.96875 18.378906 22.96875 33.699219 0 15.324218-9.523438 28.417968-22.96875 33.703125 4.101562 1.617187 8.566406 2.511719 13.242187 2.511719 20 0 36.214844-16.214844 36.214844-36.214844s-16.214844-36.210938-36.214844-36.210938zm0 0" fill="#ff8b00"/><path d="m493.640625 320.058594h-475.28125c-6.4375 0-11.4375-5.613282-10.691406-12.007813l23.328125-200.214843c.628906-5.429688 5.226562-9.519532 10.691406-9.519532h428.625c5.464844 0 10.0625 4.089844 10.695312 9.519532l23.324219 200.214843c.746094 6.394531-4.253906 12.007813-10.691406 12.007813zm0 0" fill="#ed500a"/><path d="m504.332031 308.050781-23.324219-200.214843c-.632812-5.429688-5.230468-9.519532-10.695312-9.519532h-71.691406l20.671875 177.441406c.746093 6.394532-4.25 12.007813-10.691407 12.007813h-398.570312l-2.363281 20.285156c-.746094 6.394531 4.253906 12.007813 10.691406 12.007813h475.28125c6.4375 0 11.4375-5.613282 10.691406-12.007813zm0 0" fill="#db3317"/><path d="m357.359375 357.957031h-.1875c-3.613281.003907-6.570313-2.949219-6.570313-6.5625v-112.808593c0-3.628907 2.941407-6.566407 6.570313-6.5625h.1875c21.636719 0 39.078125-17.949219 38.246094-39.769532-.757813-19.996094-17.175781-36.222656-37.179688-36.765625-12.851562-.347656-24.316406 5.644531-31.507812 15.070313-1.246094 1.636718-3.714844 1.636718-4.960938 0-7.191406-9.425782-18.65625-15.417969-31.507812-15.070313-20.003907.542969-36.421875 16.769531-37.183594 36.765625-.828125 21.820313 16.613281 39.769532 38.246094 39.769532h.191406c3.613281-.003907 6.570313 2.949218 6.570313 6.5625v112.808593c0 3.613281-2.957032 6.566407-6.570313 6.5625h-.191406c-21.632813 0-39.074219 17.949219-38.246094 39.765625.761719 20 17.179687 36.226563 37.183594 36.769532 12.851562.347656 24.316406-5.644532 31.507812-15.070313 1.246094-1.636719 3.714844-1.636719 4.960938 0 7.1875 9.425781 18.652343 15.417969 31.507812 15.070313 20.003907-.542969 36.421875-16.769532 37.179688-36.769532.832031-21.816406-16.609375-39.765625-38.246094-39.765625zm0 0" fill="#d2d2dd"/><path d="m357.359375 357.957031h-.1875c-3.613281.003907-6.570313-2.949219-6.570313-6.5625v-112.808593c0-3.628907 2.941407-6.566407 6.570313-6.5625h.1875c21.636719 0 39.078125-17.949219 38.246094-39.769532-.757813-19.996094-17.175781-36.222656-37.179688-36.765625-5.339843-.144531-10.429687.816407-15.085937 2.652344 13.738281 5.445313 23.691406 18.648437 24.28125 34.113281.832031 21.820313-16.613282 39.769532-38.246094 39.769532h-.191406c-3.625-.003907-6.570313 2.933593-6.570313 6.5625v112.804687c0 3.617187 2.957031 6.570313 6.570313 6.566406h.191406c21.632812 0 39.074219 17.949219 38.246094 39.765625-.589844 15.46875-10.542969 28.671875-24.28125 34.113282 4.65625 1.835937 9.746094 2.800781 15.085937 2.652343 20.003907-.542969 36.421875-16.765625 37.179688-36.765625.832031-21.816406-16.609375-39.765625-38.246094-39.765625zm0 0" fill="#bcbcc4"/><path d="m511.878906 307.167969-23.328125-200.210938c-1.078125-9.257812-8.917969-16.238281-18.238281-16.238281h-33.988281c-4.65625-19.445312-22.054688-33.5-42.585938-33.5-8.632812 0-16.742187 2.554688-23.585937 6.953125-5.785156-10.109375-15.421875-17.585937-26.851563-20.578125-.117187-24.054688-19.726562-43.59375-43.8125-43.59375-13.253906 0-25.605469 5.96875-33.835937 15.988281-8.234375-10.019531-20.585938-15.988281-33.839844-15.988281-23.898438 0-43.390625 19.234375-43.804688 43.039062-9.882812 2.003907-18.707031 7.34375-25.066406 15.097657-9.015625-10.941407-22.96875-17.003907-37.460937-15.839844-21.347657 1.726563-38.578125 19.148437-40.070313 40.527344-.1875 2.660156-.125 5.296875.15625 7.894531h-43.878906c-9.320312 0-17.160156 6.980469-18.238281 16.238281l-23.324219 200.210938c-.609375 5.203125 1.042969 10.425781 4.519531 14.335937 3.484375 3.910156 8.480469 6.152344 13.714844 6.152344h55.796875c4.195312 0 7.597656-3.402344 7.597656-7.597656 0-4.195313-3.402344-7.59375-7.597656-7.59375h-55.796875c-2.105469-.238282-3.152344-1.417969-3.144531-3.535156l23.324218-200.214844c.1875-1.597656 1.539063-2.800782 3.148438-2.800782h315.8125c.042969 0 .089844.003907.132812.003907.035157 0 .070313-.003907.101563-.003907h112.578125c1.609375 0 2.960938 1.203126 3.148438 2.800782l23.328124 200.214844c.007813 2.117187-1.042968 3.296874-3.148437 3.535156h-108.066406c-4.195313 0-7.59375 3.398437-7.59375 7.59375 0 4.195312 3.398437 7.597656 7.59375 7.597656h108.066406c5.234375 0 10.234375-2.242188 13.710937-6.152344 3.484376-3.910156 5.132813-9.132812 4.527344-14.335937zm-91.429687-216.449219h-53.398438c4.171875-10.726562 14.65625-18.304688 26.6875-18.304688 12.121094 0 22.566407 7.492188 26.710938 18.304688zm-319.882813-6.835938c.976563-13.949218 12.214844-25.316406 26.140625-26.445312 11.324219-.917969 22.148438 4.925781 27.558594 14.878906 1.738281 3.203125 5.078125 5.191406 8.714844 5.191406h.007812c3.601563-.003906 6.902344-1.96875 8.613281-5.136718 4.617188-8.53125 13.121094-14.105469 22.753907-14.914063 2.65625-.226562 5.054687-1.476562 6.753906-3.523437 1.703125-2.046875 2.496094-4.640625 2.226563-7.292969-.09375-.945313-.140626-1.894531-.140626-2.828125 0-15.78125 12.835938-28.621094 28.617188-28.621094 10.519531 0 20.167969 5.761719 25.183594 15.027344 1.714844 3.175781 5.03125 5.148438 8.65625 5.148438 3.621094 0 6.9375-1.972657 8.65625-5.148438 5.011718-9.265625 14.660156-15.027344 25.179687-15.027344 15.78125 0 28.617188 12.839844 28.617188 28.621094 0 1-.054688 2.019531-.164063 3.03125-.570312 5.292969 3.101563 10.042969 8.367188 10.808594 10.046875 1.464844 18.441406 8.117187 22.257812 17.332031-3.445312 4.625-5.992187 9.957031-7.398437 15.734375h-250.273438c-.375-2.234375-.492187-4.515625-.328125-6.835938zm0 0"/><path d="m358.195312 350.367188v-110.757813c12.265626-.214844 23.679688-5.1875 32.214844-14.050781 8.722656-9.066406 13.265625-20.996094 12.785156-33.59375-.914062-24.058594-20.488281-43.417969-44.566406-44.070313-12.871094-.367187-25.308594 4.785157-34.191406 13.925781-8.886719-9.140624-21.296875-14.273437-34.195312-13.925781-.996094.027344-1.996094.085938-2.976563.175781-4.175781.390626-7.25 4.089844-6.863281 8.269532.390625 4.175781 4.082031 7.253906 8.269531 6.859375.648437-.058594 1.320313-.101563 1.984375-.117188 9.855469-.253906 19.285156 4.25 25.261719 12.082031 2.042969 2.679688 5.148437 4.214844 8.519531 4.214844s6.476562-1.535156 8.519531-4.214844c5.972657-7.832031 15.410157-12.347656 25.261719-12.082031 16.097656.433594 29.1875 13.375 29.796875 29.460938.320313 8.433593-2.714844 16.417969-8.550781 22.476562-5.835938 6.066407-13.6875 9.40625-22.105469 9.40625h-.179687c-.003907 0-.011719 0-.015626 0-3.78125 0-7.332031 1.46875-10.007812 4.140625-2.675781 2.675782-4.152344 6.234375-4.152344 10.019532v112.804687c0 3.777344 1.476563 7.335937 4.160156 10.011719 2.675782 2.675781 6.226563 4.148437 9.992188 4.148437h.015625.191406c8.414063 0 16.265625 3.339844 22.101563 9.40625 5.835937 6.058594 8.875 14.042969 8.550781 22.476563-.609375 16.085937-13.699219 29.027344-29.796875 29.464844-9.859375.230468-19.285156-4.253907-25.261719-12.085938-2.042969-2.679688-5.148437-4.214844-8.519531-4.214844s-6.476562 1.535156-8.519531 4.214844c-5.976563 7.832031-15.429688 12.339844-25.261719 12.085938-16.097656-.4375-29.1875-13.378907-29.800781-29.464844-.320313-8.433594 2.71875-16.417969 8.550781-22.476563 5.839844-6.066406 13.691406-9.40625 22.105469-9.40625h.183593.015626c3.769531 0 7.324218-1.472656 10-4.148437 2.683593-2.675782 4.160156-6.234375 4.160156-10.011719v-112.804687c0-3.777344-1.476563-7.332032-4.160156-10.011719-2.675782-2.675781-6.226563-4.148438-9.992188-4.148438-.003906 0-.011719 0-.015625 0h-.191406c-8.414063 0-16.265625-3.339843-22.105469-9.402343-5.832031-6.0625-8.871094-14.046876-8.550781-22.480469.195312-5.101563 1.703125-10.121094 4.359375-14.519531 2.171875-3.589844 1.019531-8.261719-2.570313-10.429688-3.59375-2.171875-8.261719-1.019531-10.429687 2.570312-3.988282 6.597657-6.246094 14.136719-6.539063 21.804688-.480469 12.597656 4.0625 24.527344 12.785157 33.589844 8.539062 8.867187 19.949218 13.835937 32.214843 14.054687v72.851563h-181.070312c-4.191407 0-7.59375 3.398437-7.59375 7.597656 0 4.195312 3.402343 7.59375 7.59375 7.59375h181.074219v22.714844c-12.265626.214844-23.679688 5.1875-32.214844 14.054687-8.726563 9.0625-13.269532 20.992188-12.789063 33.589844.914063 24.0625 20.492188 43.417969 44.570313 44.074219 12.878906.335937 25.304687-4.785156 34.191406-13.929688 8.601562 8.851563 20.519531 13.945313 32.957031 13.945313.410157 0 .824219-.007813 1.234375-.015625 24.078125-.65625 43.652344-20.011719 44.566406-44.074219.480469-12.597656-4.058593-24.527344-12.785156-33.589844-8.535156-8.871093-19.949218-13.839843-32.214844-14.058593zm0 0"/></svg>