<?xml version="1.0" encoding="UTF-8"?>
<svg xmlns="http://www.w3.org/2000/svg" xmlns:xlink="http://www.w3.org/1999/xlink" version="1.1" id="Capa_1" x="0px" y="0px" viewBox="0 0 512 512" style="enable-background:new 0 0 512 512;" xml:space="preserve" width="512" height="512">
<g>
	<path style="fill:#FED402;" d="M256,62.722h66.173c1.192,0,1.891-1.31,1.255-2.319c-3.359-5.324-5.302-11.63-5.302-18.39&#10;&#9;&#9;c0-19.392,15.993-35.049,35.509-34.5c17.776,0.5,32.482,14.781,33.465,32.537c0.416,7.517-1.575,14.548-5.272,20.391&#10;&#9;&#9;c-0.626,0.989,0.115,2.28,1.285,2.28c0,0,64.665,0,64.665,0c0.83,0,1.502,0.672,1.502,1.502v64.665c0,1.17,1.291,1.91,2.28,1.285&#10;&#9;&#9;c5.844-3.698,12.875-5.689,20.392-5.273c17.756,0.983,32.038,15.69,32.537,33.466c0.548,19.515-15.108,35.507-34.5,35.507&#10;&#9;&#9;c-6.76,0-13.066-1.944-18.39-5.302c-1.008-0.636-2.319,0.062-2.319,1.255V256c0,0-78.116,69.575-97.631,69.028&#10;&#9;&#9;C333.87,324.529,228.389,256,228.389,256S256,62.722,256,62.722z"/>
	<path style="fill:#6FD7A3;" d="M278.672,124.902c-8.523-0.472-16.42,2.151-22.672,6.846V62.722l-66.167,0&#10;&#9;&#9;c-1.17,0-1.91-1.291-1.285-2.28c3.697-5.844,5.689-12.874,5.273-20.391c-0.983-17.756-15.689-32.037-33.465-32.537&#10;&#9;&#9;c-19.515-0.549-35.508,15.108-35.508,34.5c0,6.76,1.944,13.066,5.303,18.39c0.636,1.008-0.062,2.319-1.255,2.319H64.224&#10;&#9;&#9;c-0.83,0-1.502,0.672-1.502,1.502v64.665c0,1.17,1.291,1.91,2.28,1.285c5.844-3.698,12.875-5.689,20.392-5.273&#10;&#9;&#9;c17.756,0.983,32.037,15.69,32.537,33.466c0.548,19.515-15.108,35.507-34.5,35.507c-6.76,0-13.066-1.944-18.39-5.302&#10;&#9;&#9;c-1.008-0.636-2.319,0.062-2.319,1.255V256l96.639,13.806L256,256v-69.026c5.769,4.333,12.939,6.901,20.708,6.901&#10;&#9;&#9;c19.392,0,35.048-15.992,34.5-35.507C310.709,140.591,296.428,125.885,278.672,124.902z"/>
	<path style="fill:#FE0364;" d="M186.974,256c4.695-6.251,7.318-14.148,6.846-22.671c-0.983-17.756-15.689-32.037-33.465-32.537&#10;&#9;&#9;c-19.516-0.549-35.509,15.108-35.509,34.5c0,7.77,2.568,14.94,6.901,20.708H62.722l0,66.167c0,1.17-1.291,1.91-2.28,1.285&#10;&#9;&#9;c-5.844-3.697-12.874-5.689-20.391-5.273c-17.756,0.983-32.038,15.688-32.538,33.465c-0.549,19.516,15.108,35.509,34.5,35.509&#10;&#9;&#9;c6.76,0,13.066-1.944,18.39-5.302c1.008-0.636,2.319,0.062,2.319,1.254v64.671c0,0.83,0.672,1.502,1.502,1.502l64.665,0&#10;&#9;&#9;c1.17,0,1.91-1.291,1.285-2.28c-3.698-5.844-5.689-12.875-5.273-20.392c0.984-17.756,15.69-32.037,33.467-32.536&#10;&#9;&#9;c19.515-0.548,35.507,15.109,35.507,34.5c0,6.76-1.944,13.066-5.302,18.39c-0.636,1.008,0.062,2.319,1.255,2.319H256l13.806-96.639&#10;&#9;&#9;L256,256H186.974z"/>
	<path style="fill:#01C0FA;" d="M449.278,256v66.173c0,1.192,1.31,1.891,2.318,1.254c5.324-3.359,11.63-5.302,18.39-5.302&#10;&#9;&#9;c19.391,0,35.048,15.992,34.5,35.507c-0.499,17.776-14.779,32.483-32.535,33.467c-7.518,0.417-14.549-1.575-20.393-5.272&#10;&#9;&#9;c-0.989-0.626-2.28,0.115-2.28,1.285c0,0,0,64.665,0,64.665c0,0.83-0.672,1.502-1.502,1.502h-64.671&#10;&#9;&#9;c-1.192,0-1.891,1.31-1.255,2.319c3.359,5.324,5.302,11.63,5.302,18.39c0,19.391-15.991,35.047-35.506,34.5&#10;&#9;&#9;c-17.777-0.499-32.483-14.78-33.467-32.536c-0.416-7.518,1.575-14.549,5.272-20.393c0.626-0.989-0.115-2.28-1.285-2.28H256v-69.026&#10;&#9;&#9;c-5.768,4.333-12.938,6.901-20.708,6.901c-19.392,0-35.049-15.993-34.5-35.509c0.5-17.776,14.782-32.482,32.538-33.465&#10;&#9;&#9;c8.523-0.472,16.42,2.151,22.671,6.846V256h69.026c-4.695,6.251-7.318,14.149-6.846,22.673&#10;&#9;&#9;c0.984,17.756,15.691,32.037,33.467,32.536c19.514,0.547,35.506-15.109,35.506-34.5c0-7.77-2.568-14.94-6.901-20.708&#10;&#9;&#9;C380.252,256,449.278,256,449.278,256z"/>
	<path style="fill:#FAC600;" d="M504.486,158.368c-0.499-17.776-14.781-32.483-32.537-33.466&#10;&#9;&#9;c-7.518-0.416-14.548,1.575-20.392,5.273c-0.989,0.626-2.28-0.115-2.28-1.285V64.224c0-0.829-0.672-1.502-1.502-1.502&#10;&#9;&#9;c0,0-20.564,0-38.5,0v226.814C430.627,272.611,449.278,256,449.278,256v-66.173c0-1.192,1.31-1.891,2.318-1.255&#10;&#9;&#9;c5.324,3.359,11.63,5.302,18.39,5.302C489.378,193.875,505.034,177.883,504.486,158.368z"/>
	<path style="fill:#E30256;" d="M124.855,429.277H62.722v18.499c0,0.83,0.673,1.502,1.502,1.502h64.665&#10;&#9;&#9;c1.17,0,1.91-1.291,1.285-2.28C126.918,441.852,124.986,435.786,124.855,429.277z"/>
	<path style="fill:#E30256;" d="M193.868,429.277c-0.13,6.492-2.054,12.545-5.295,17.682c-0.636,1.008,0.062,2.319,1.254,2.319H256&#10;&#9;&#9;l2.857-20.001H193.868z"/>
	<path style="fill:#08A9F1;" d="M469.986,318.125c-6.76,0-13.066,1.944-18.39,5.302c-1.008,0.636-2.318-0.062-2.318-1.254V256&#10;&#9;&#9;h-40.002v94.823c0,43.329-35.125,78.454-78.454,78.454H256v20.001h66.167c1.17,0,1.91,1.291,1.285,2.28&#10;&#9;&#9;c-3.697,5.844-5.689,12.875-5.272,20.393c0.984,17.756,15.691,32.037,33.467,32.536c19.515,0.547,35.506-15.109,35.506-34.5&#10;&#9;&#9;c0-6.76-1.944-13.066-5.302-18.39c-0.636-1.008,0.062-2.319,1.255-2.319h64.671c0.83,0,1.502-0.672,1.502-1.502v-64.665&#10;&#9;&#9;c0-1.17,1.291-1.91,2.28-1.285c5.844,3.698,12.876,5.689,20.393,5.272c17.756-0.984,32.036-15.69,32.535-33.467&#10;&#9;&#9;C505.034,334.117,489.378,318.125,469.986,318.125z"/>
	<path style="fill:none;stroke:#000000;stroke-width:15;stroke-linecap:round;stroke-linejoin:round;stroke-miterlimit:10;" d="&#10;&#9;&#9;M256,62.722"/>
	<path style="fill:none;stroke:#000000;stroke-width:15;stroke-linecap:round;stroke-linejoin:round;stroke-miterlimit:10;" d="&#10;&#9;&#9;M77.826,62.722H64.224c-0.83,0-1.502,0.672-1.502,1.502v64.665c0,1.17,1.291,1.91,2.28,1.285&#10;&#9;&#9;c5.844-3.698,12.875-5.689,20.392-5.273c17.756,0.983,32.037,15.69,32.537,33.466c0.548,19.515-15.108,35.507-34.5,35.507&#10;&#9;&#9;c-6.76,0-13.066-1.944-18.39-5.302c-1.008-0.636-2.319,0.062-2.319,1.255V256"/>
	<path style="fill:none;stroke:#000000;stroke-width:15;stroke-linecap:round;stroke-linejoin:round;stroke-miterlimit:10;" d="&#10;&#9;&#9;M256,256v-69.026c5.769,4.333,12.939,6.901,20.708,6.901c19.392,0,35.048-15.992,34.5-35.507&#10;&#9;&#9;c-0.499-17.776-14.781-32.483-32.537-33.466c-8.523-0.472-16.42,2.151-22.672,6.846V62.722l-66.167,0&#10;&#9;&#9;c-1.17,0-1.91-1.291-1.285-2.28c3.697-5.844,5.689-12.874,5.273-20.391c-0.983-17.756-15.689-32.037-33.465-32.537&#10;&#9;&#9;c-19.515-0.549-35.508,15.108-35.508,34.5c0,6.76,1.944,13.066,5.303,18.39c0.636,1.008-0.062,2.319-1.255,2.319h-16.068"/>
	<path style="fill:none;stroke:#000000;stroke-width:15;stroke-linecap:round;stroke-linejoin:round;stroke-miterlimit:10;" d="&#10;&#9;&#9;M62.722,437.456v10.32c0,0.83,0.672,1.502,1.502,1.502l64.665,0c1.17,0,1.91-1.291,1.285-2.28&#10;&#9;&#9;c-3.698-5.844-5.689-12.875-5.273-20.392c0.984-17.756,15.69-32.037,33.467-32.536c19.515-0.548,35.507,15.109,35.507,34.5&#10;&#9;&#9;c0,6.76-1.944,13.066-5.302,18.39c-0.636,1.008,0.062,2.319,1.255,2.319H256"/>
	<path style="fill:none;stroke:#000000;stroke-width:15;stroke-linecap:round;stroke-linejoin:round;stroke-miterlimit:10;" d="&#10;&#9;&#9;M256,256h-69.026c4.695-6.251,7.318-14.148,6.846-22.671c-0.983-17.756-15.689-32.037-33.465-32.537&#10;&#9;&#9;c-19.516-0.549-35.509,15.108-35.509,34.5c0,7.77,2.568,14.94,6.901,20.708H62.722l0,66.167c0,1.17-1.291,1.91-2.28,1.285&#10;&#9;&#9;c-5.844-3.697-12.874-5.689-20.391-5.273c-17.756,0.983-32.038,15.688-32.538,33.465c-0.549,19.516,15.108,35.509,34.5,35.509&#10;&#9;&#9;c6.76,0,13.066-1.944,18.39-5.302c1.008-0.636,2.319,0.062,2.319,1.254v19.35"/>
	
		<line style="fill:none;stroke:#000000;stroke-width:15;stroke-linecap:round;stroke-linejoin:round;stroke-miterlimit:10;" x1="449.278" y1="256" x2="431.979" y2="256"/>
	<path style="fill:none;stroke:#000000;stroke-width:15;stroke-linecap:round;stroke-linejoin:round;stroke-miterlimit:10;" d="&#10;&#9;&#9;M449.278,256v66.173c0,1.192,1.31,1.891,2.318,1.254c5.324-3.359,11.63-5.302,18.39-5.302c19.391,0,35.048,15.992,34.5,35.507&#10;&#9;&#9;c-0.499,17.776-14.779,32.483-32.535,33.467c-7.518,0.417-14.549-1.575-20.393-5.272c-0.989-0.626-2.28,0.115-2.28,1.285v64.665&#10;&#9;&#9;c0,0.83-0.672,1.502-1.502,1.502h-64.671c-1.192,0-1.891,1.31-1.255,2.319c3.359,5.324,5.302,11.63,5.302,18.39&#10;&#9;&#9;c0,19.391-15.991,35.047-35.506,34.5c-17.777-0.499-32.483-14.78-33.467-32.536c-0.416-7.518,1.575-14.549,5.272-20.393&#10;&#9;&#9;c0.626-0.989-0.115-2.28-1.285-2.28H256v-69.026c-5.768,4.333-12.938,6.901-20.708,6.901c-19.392,0-35.049-15.993-34.5-35.509&#10;&#9;&#9;c0.5-17.776,14.782-32.482,32.538-33.465c8.523-0.472,16.42,2.151,22.671,6.846V256h69.026c-4.695,6.251-7.318,14.149-6.846,22.673&#10;&#9;&#9;c0.984,17.756,15.691,32.037,33.467,32.536c19.514,0.547,35.506-15.109,35.506-34.5c0-7.77-2.568-14.94-6.901-20.708h16.726"/>
	<path style="fill:none;stroke:#000000;stroke-width:15;stroke-linecap:round;stroke-linejoin:round;stroke-miterlimit:10;" d="&#10;&#9;&#9;M256,62.722h66.173c1.192,0,1.891-1.31,1.255-2.319c-3.359-5.324-5.302-11.63-5.302-18.39c0-19.392,15.993-35.049,35.509-34.5&#10;&#9;&#9;c17.776,0.5,32.482,14.781,33.465,32.537c0.416,7.517-1.575,14.548-5.272,20.391c-0.626,0.989,0.115,2.28,1.285,2.28h64.665&#10;&#9;&#9;c0.83,0,1.502,0.672,1.502,1.502v64.665c0,1.17,1.291,1.91,2.28,1.285c5.844-3.698,12.875-5.689,20.392-5.273&#10;&#9;&#9;c17.756,0.983,32.038,15.69,32.537,33.466c0.548,19.515-15.108,35.507-34.5,35.507c-6.76,0-13.066-1.944-18.39-5.302&#10;&#9;&#9;c-1.008-0.636-2.319,0.062-2.319,1.255V256"/>
</g>















</svg>
